<svg width="820" height="233" viewBox="0 0 820 233" fill="none" xmlns="http://www.w3.org/2000/svg">
<path d="M139.869 6.13334C131.736 18.1333 116.536 53.3333 111.469 72.1333C109.336 79.7333 106.136 86.9333 101.736 94.1333C98.136 99.8667 90.8026 112.4 85.336 122C60.4026 166.4 41.336 195.467 27.2026 210.533L16.6693 221.733L15.736 217.2C12.4026 200.8 9.33597 119.467 11.2026 98.4L12.2693 88.2667L17.0693 87.3333C28.2693 85.2 42.936 79.6 50.6693 74.4C60.2693 68.1333 69.2026 56.8 72.8026 46.5333C74.2693 42.5333 76.4026 39.2 78.0026 38.5333C79.4693 37.8667 89.736 35.8667 100.669 33.8667C111.736 32 120.669 30.4 120.803 30.2667C121.336 29.3333 128.003 14.2667 128.003 13.8667C128.003 12.9333 77.0693 20.4 71.736 22.1333C70.4026 22.5333 68.8026 25.2 67.8693 28.4C64.136 42.8 52.4026 56.2667 37.736 63.3333C33.4693 65.3333 23.6026 68.5333 15.8693 70.4L1.73597 73.8667L0.802639 86.5333C-0.530694 106.533 -0.130694 159.6 1.46931 181.067C3.20264 204.267 6.00264 230.533 6.93597 231.467C7.46931 232 80.6693 232.267 137.069 232C144.003 232 144.003 232 144.003 227.6C144.003 220 149.069 199.067 152.536 192.267C154.536 188.267 157.736 184.4 160.536 182.667C164.803 180.133 166.803 179.867 184.269 180.133C206.136 180.533 208.403 179.733 216.803 170.267C224.003 162.133 232.003 145.467 232.003 138.8C232.003 132 229.069 129.733 207.603 119.467C190.536 111.333 187.603 108.4 186.003 98.1333C184.269 88 174.269 74.4 163.069 66.9333C157.336 63.2 156.003 61.6 156.536 59.4667C159.069 48.6667 161.336 26.6667 161.069 16.6667L160.669 4.66667L155.469 12.2667C152.669 16.5333 149.736 20 149.203 20C148.536 20 148.003 17.3333 148.003 14.1333C148.003 6.80001 146.669 5.69649e-06 145.203 5.69649e-06C144.669 5.69649e-06 142.269 2.80001 139.869 6.13334ZM149.469 53.4667C148.536 55.8667 148.136 53.0667 148.136 42.4C148.003 23.8667 149.869 19.2 150.403 36.8C150.536 44.1333 150.136 51.6 149.469 53.4667ZM176.536 102.933C179.469 107.067 179.336 111.2 176.403 110C175.069 109.467 172.403 108.4 170.403 107.733C165.869 106.133 165.736 104.8 169.603 102.133C173.469 99.3333 174.136 99.4667 176.536 102.933ZM226.536 149.333C226.536 150.533 225.736 149.867 224.669 148C223.603 146.133 222.803 143.733 222.803 142.667C222.803 141.467 223.603 142.133 224.669 144C225.736 145.867 226.536 148.267 226.536 149.333Z" fill="#FFFAFA"/>
<path d="M168.003 23.0667V31.4667L186.403 34.5333C196.403 36.1333 205.603 37.7333 206.669 38.1333C207.736 38.4 209.736 41.4667 210.936 44.9333C218.536 66.1333 237.736 80.9333 265.736 87.2L272.669 88.6667L273.869 109.333C275.069 132.533 273.069 186.8 270.003 212.667C268.936 221.467 268.003 229.467 268.003 230.267C268.003 231.333 269.869 232 273.069 232H278.269L279.736 217.6C280.669 209.733 282.003 195.867 282.803 186.667C284.269 168.533 284.536 93.3333 283.203 81.0667L282.403 73.4667L274.803 72C256.403 68.4 246.936 64.6667 235.869 56.5333C228.403 51.0667 219.203 38 217.203 29.8667C216.136 25.8667 214.669 23.3333 212.803 22.5333C210.536 21.6 171.869 14.6667 168.803 14.6667C168.403 14.6667 168.003 18.4 168.003 23.0667Z" fill="#FFFAFA"/>
<path d="M98.0027 45.3333C78.536 49.0666 79.336 48.6666 77.6027 54.4C72.0027 73.0666 49.6027 91.4666 27.0693 96.1333L18.936 97.8666L18.0027 121.867C16.936 150.8 20.0027 206.667 22.6693 206.667C24.8027 206.667 25.2027 202.4 24.0027 192.933C22.136 177.6 20.936 134 22.0027 117.2L22.936 101.6L31.736 99.3333C45.736 95.6 57.6027 88.8 66.4027 79.4666C73.0693 72.2666 81.336 58.5333 81.336 54.6666C81.336 54 83.6027 53.0666 86.4027 52.5333C110.003 48.4 114.003 47.2 114.403 44.9333C114.936 42.2666 115.069 42.2666 98.0027 45.3333Z" fill="#FFFAFA"/>
<path d="M165.336 44.6667C165.336 45.7333 167.069 46.8 169.736 47.3333C192.403 51.3333 201.469 53.0667 201.736 53.4667C202.003 53.7333 204.136 58.1333 206.669 63.2C214.936 80.4 231.736 93.6 252.803 99.4667L261.069 101.733L261.869 109.333C264.269 129.733 262.536 176.8 257.869 223.733C257.203 229.467 257.469 232 258.403 232C260.269 232 260.803 229.6 262.669 214C266.403 182 268.003 126.4 265.869 105.733L264.936 97.7333L257.469 96C253.336 95.2 245.069 92.1333 239.069 89.2C224.669 82.4 216.403 74 209.336 59.4667L204.003 48.5333L186.269 45.6C165.336 42.1333 165.336 42.1333 165.336 44.6667Z" fill="#FFFAFA"/>
<path d="M764.269 93.0666C761.336 93.4666 760.403 95.0666 758.136 102.267C756.403 107.6 760.936 105.867 765.336 99.4666C769.469 93.1999 769.336 92.1333 764.269 93.0666Z" fill="#FFFAFA"/>
<path d="M323.203 110.133C318.269 112.533 316.003 116.933 315.069 126C314.136 134.8 318.003 140.667 327.736 145.333C332.536 147.6 335.069 149.6 335.603 151.867C337.603 159.733 328.669 162.533 325.469 154.933C323.736 151.2 322.936 150.667 318.403 150.667C315.603 150.667 313.336 150.933 313.336 151.333C313.336 151.6 314.003 154.933 314.803 158.533C316.669 167.467 321.869 172 330.136 172C333.469 172 337.336 171.333 338.936 170.533C342.803 168.533 346.669 159.067 346.669 151.6C346.669 141.333 343.469 136.267 334.403 132.133C326.669 128.667 324.536 126.133 326.136 122.133C327.469 118.8 332.403 120.133 334.403 124.267C335.736 127.067 337.069 128 340.136 128C345.069 128 346.136 125.467 344.136 118.533C341.336 109.467 332.136 105.733 323.203 110.133Z" fill="#FFFAFA"/>
<path d="M531.203 109.333C527.336 110.933 521.869 117.733 519.869 123.6C517.603 130.133 517.603 149.733 519.869 157.2C520.803 160.533 523.603 165.2 526.136 167.733C530.536 172.133 531.069 172.267 538.669 171.733C545.203 171.333 547.336 170.4 550.669 167.333C554.669 163.6 554.669 163.333 554.669 149.733V136H545.869H537.203L537.603 142.267C538.003 148.133 538.269 148.667 541.736 149.067C544.536 149.467 545.336 150.267 545.336 152.667C545.336 156.267 541.869 158.667 536.803 158.667C531.603 158.667 529.336 152.933 529.336 140.133C529.336 127.867 531.069 122.933 535.736 121.733C538.403 121.067 539.736 121.733 542.136 124.667C544.669 127.867 545.603 128.267 549.869 127.467C555.469 126.4 555.603 125.467 551.869 117.6C547.869 109.467 539.336 106 531.203 109.333Z" fill="#FFFAFA"/>
<path d="M353.336 140.533V171.867L368.403 171.467L383.336 171.067V164.533V158L373.736 157.6L364.003 157.2V151.333V145.333H372.669H381.336V138.667V132H372.669H364.003V127.333V122.667H373.336H382.669V116V109.333H368.003H353.336V140.533Z" fill="#FFFAFA"/>
<path d="M390.136 138C389.603 155.6 389.736 167.467 390.536 168.933C391.603 171.067 393.869 171.467 405.203 171.733L418.669 172.133V164.8V157.333H410.003H401.336V133.333V109.333H396.269H391.069L390.136 138Z" fill="#FFFAFA"/>
<path d="M425.336 110C425.336 110.4 425.336 124.267 425.203 140.933V171.333L439.336 171.733L453.336 172.133V164.667V157.333L446.403 157.2C442.536 157.067 438.536 157.067 437.736 157.2C436.403 157.333 436.003 151.867 436.003 133.333V109.333H430.669C427.736 109.333 425.336 109.6 425.336 110Z" fill="#FFFAFA"/>
<path d="M467.736 111.333C461.736 114.667 458.136 124.267 457.603 138.933C456.936 154.267 459.203 161.867 466.269 168C471.869 173.067 478.936 173.333 485.336 168.933C491.869 164.533 494.536 156.533 494.536 141.467C494.669 126.933 493.069 120.667 487.736 114.133C484.269 109.867 483.069 109.333 477.603 109.333C474.136 109.467 469.736 110.267 467.736 111.333ZM480.803 125.467C482.936 127.867 483.336 130.4 483.336 140.667C483.336 150.933 482.936 153.467 480.803 155.867C477.603 159.467 474.403 159.467 471.203 155.867C469.069 153.467 468.669 150.933 468.669 140.667C468.669 130.4 469.069 127.867 471.203 125.467C474.403 121.867 477.603 121.867 480.803 125.467Z" fill="#FFFAFA"/>
<path d="M562.669 132.133C562.669 164 565.069 170.267 578.003 171.733C585.869 172.533 590.003 170.4 593.736 163.333C596.403 158.533 596.669 155.6 597.069 133.6L597.603 109.333H592.136H586.669V130C586.669 142.667 586.136 151.867 585.069 153.867C583.203 158.267 579.069 159.6 576.136 156.8C574.403 154.933 573.869 150.8 573.603 132L573.203 109.333H567.869H562.669V132.133Z" fill="#FFFAFA"/>
<path d="M612.803 114.933C612.003 120 602.136 163.733 600.536 169.6C599.869 171.6 600.803 172 605.869 172H611.869L612.803 165.867L613.603 159.867L619.869 160.267C626.136 160.667 626.269 160.8 628.803 170.267C629.469 172.8 640.003 172.533 640.003 170.133C640.003 169.067 637.736 158.4 634.803 146.4C632.003 134.4 628.936 121.2 628.136 116.933L626.536 109.333H620.136H613.736L612.803 114.933ZM623.336 141.2L624.269 148H620.003C616.269 148 615.736 147.6 616.403 144.933C616.803 143.333 617.603 139.6 618.003 136.667C619.869 125.2 621.336 126.533 623.336 141.2Z" fill="#FFFAFA"/>
<path d="M644.669 124.267C644.269 132.533 644.003 146.533 644.269 155.333L644.669 171.333H650.003H655.336L656.003 158.133C656.669 145.333 656.669 145.067 659.069 147.733C660.403 149.2 662.803 154.8 664.403 160.133L667.469 170L673.069 170.8C676.269 171.2 679.069 171.067 679.336 170.667C680.269 169.2 674.803 150.8 672.403 147.2C670.403 144.133 670.403 143.733 673.469 140.533C676.269 137.467 676.669 135.867 676.669 126.533C676.669 117.467 676.269 115.733 673.603 113.067C670.936 110.4 668.936 110 658.136 109.6L645.603 109.067L644.669 124.267ZM665.336 123.867C668.269 129.333 665.203 134.667 659.203 134.667C656.269 134.667 656.003 134.133 656.003 128C656.003 121.467 656.136 121.333 660.003 121.333C662.536 121.333 664.403 122.267 665.336 123.867Z" fill="#FFFAFA"/>
<path d="M685.603 140.133L686.003 171.333L695.869 171.2C707.603 170.933 710.669 169.467 714.669 162.267C718.803 154.933 720.003 134.533 716.936 123.867C713.603 112.533 710.136 110.133 696.536 109.467L685.336 109.067L685.603 140.133ZM704.803 125.467C706.803 127.6 707.469 130.667 707.736 139.2C708.136 152.4 706.536 156.533 700.269 157.067L696.003 157.467V140.133C696.003 122.667 696.003 122.667 699.069 122.667C700.803 122.667 703.336 123.867 704.803 125.467Z" fill="#FFFAFA"/>
<path d="M725.603 140.267L726.003 171.333L730.269 171.733C737.203 172.4 737.736 170 737.069 138.133L736.536 110L730.936 109.6L725.336 109.2L725.603 140.267Z" fill="#FFFAFA"/>
<path d="M755.603 110.267C754.669 111.867 742.803 162.667 742.403 167.2C742.136 170.133 742.669 171.067 744.536 171.467C749.069 172.133 753.336 169.6 753.336 166.133C753.336 162.667 755.069 161.067 759.336 160.267C764.936 159.467 767.869 161.2 768.803 166C769.336 168.933 770.403 170.667 771.869 170.8C773.069 170.933 775.736 171.2 777.736 171.467C780.669 171.733 781.336 171.333 780.803 169.6C780.403 168.4 778.936 161.6 777.469 154.667C775.869 147.733 773.069 134.8 770.936 126L767.203 110L761.736 109.6C758.669 109.333 756.003 109.733 755.603 110.267ZM763.069 135.333C763.603 138.667 764.269 142.8 764.803 144.667C765.603 147.733 765.203 148 761.469 148C756.803 148 756.803 148 758.803 136.4C760.536 126.933 761.869 126.533 763.069 135.333Z" fill="#FFFAFA"/>
<path d="M785.336 140.8V172.133L790.403 171.733L795.336 171.333L796.003 154.667L796.669 138L802.536 153.333C805.869 161.733 808.936 169.2 809.603 170C810.269 170.667 812.936 171.467 815.336 171.467L820.003 171.6V140.533V109.333H814.669H809.203L809.469 125.467C809.603 134.267 809.469 141.733 809.203 142C808.936 142.267 805.736 134.933 802.136 125.867L795.603 109.333H790.536H785.336V140.8Z" fill="#FFFAFA"/>
<path d="M445.336 196C444.403 197.733 444.403 198.667 445.203 198.667C446.003 198.667 447.203 197.467 448.003 196C448.936 194.267 448.936 193.333 448.136 193.333C447.336 193.333 446.136 194.533 445.336 196Z" fill="#FFFAFA"/>
<path d="M605.736 195.333C604.669 198.267 606.536 199.733 608.003 197.333C609.736 194.667 609.603 193.333 608.003 193.333C607.203 193.333 606.269 194.267 605.736 195.333Z" fill="#FFFAFA"/>
<path d="M316.003 216.8C316.003 226.667 316.536 231.867 317.336 231.333C318.136 230.933 318.669 227.733 318.669 224.4C318.669 219.467 319.069 218.533 320.803 219.2C322.003 219.6 324.136 218.667 326.269 216.533C332.269 210.533 328.269 201.333 319.736 201.333H316.003V216.8ZM325.069 207.6C326.936 211.067 324.669 216 321.336 216C319.069 216 318.669 215.2 318.669 210.667C318.669 206.267 319.069 205.333 321.336 205.333C322.669 205.333 324.403 206.4 325.069 207.6Z" fill="#FFFAFA"/>
<path d="M332.936 202.267C331.469 203.733 331.869 230.667 333.336 230.667C334.136 230.667 334.669 228 334.669 224.667C334.669 219.733 335.069 218.667 337.202 218.667C338.936 218.667 340.136 220.267 341.336 224.667C342.269 228 343.602 230.667 344.269 230.667C345.069 230.667 345.202 229.333 344.802 227.6C342.802 220.8 342.402 216.267 343.869 215.467C346.002 214 345.602 205.867 343.202 203.467C341.202 201.333 334.536 200.533 332.936 202.267ZM342.002 210C342.002 213.333 341.469 214 338.402 214.4C334.936 214.8 334.669 214.533 334.669 210C334.669 205.467 334.936 205.2 338.402 205.6C341.469 206 342.002 206.667 342.002 210Z" fill="#FFFAFA"/>
<path d="M351.069 204.933C346.936 211.2 348.403 228 353.336 230.667C359.736 234.133 365.069 224.133 363.336 212.133C361.736 201.6 355.603 198 351.069 204.933ZM360.269 216.267C360.536 225.867 359.736 228 356.003 228C352.536 228 350.403 219.867 351.869 212.133C354.269 200 360.136 202.8 360.269 216.267Z" fill="#FFFAFA"/>
<path d="M366.003 202.8C365.469 203.6 366.269 204.533 367.869 204.933C370.403 205.6 370.669 206.533 370.669 218.133C370.669 225.6 371.203 230.667 372.003 230.667C372.803 230.667 373.336 225.6 373.336 218C373.336 206.267 373.469 205.333 376.003 205.333C377.469 205.333 378.669 204.4 378.669 203.333C378.669 201.867 377.069 201.333 372.803 201.333C369.469 201.333 366.403 202 366.003 202.8Z" fill="#FFFAFA"/>
<path d="M382.403 213.6C381.869 231.6 381.736 231.467 388.803 230.933C395.736 230.267 396.803 228 390.003 228C385.469 228 385.336 227.867 385.336 222.667C385.336 217.867 385.736 217.333 388.669 217.333C390.536 217.333 392.003 216.667 392.003 216C392.003 215.2 390.536 214.667 388.669 214.667C386.269 214.667 385.336 214 385.336 212.133C385.336 210.667 384.936 208.667 384.536 207.467C383.869 205.733 384.669 205.333 388.536 205.333C391.869 205.333 393.336 204.8 393.336 203.333C393.336 201.867 391.869 201.333 388.136 201.333H382.803L382.403 213.6Z" fill="#FFFAFA"/>
<path d="M399.336 204C397.469 206.133 396.936 208.933 396.803 216.8C396.803 225.867 397.069 227.2 399.869 229.467C403.469 232.4 404.136 232.533 407.069 230.267C409.603 228.4 411.603 221.333 409.603 221.333C408.936 221.333 407.869 222.933 407.469 224.8C406.803 227.333 405.869 228.133 403.603 227.733C400.936 227.333 400.669 226.533 400.269 217.6C399.736 204.8 403.069 199.867 407.069 207.467C409.336 211.867 411.069 209.733 408.936 205.2C406.803 201.067 402.536 200.533 399.336 204Z" fill="#FFFAFA"/>
<path d="M416.003 204C413.869 206.133 413.336 208.4 413.336 215.333C413.336 228.8 418.136 235.333 424.136 229.867C426.669 227.6 427.869 220.533 425.336 222C424.669 222.4 424.003 224 424.003 225.467C424.003 228.8 419.203 228.8 417.336 225.467C416.669 224 416.003 220 416.003 216.667C416.003 206 421.069 201.333 424.269 208.933L425.869 212.667L426.403 208.933C427.336 201.733 421.203 198.8 416.003 204Z" fill="#FFFAFA"/>
<path d="M430.669 215.867C430.669 224 431.203 230.667 431.869 230.667C432.936 230.667 434.803 211.2 434.136 205.467C434.003 203.6 433.069 201.867 432.269 201.6C431.069 201.2 430.669 205.2 430.669 215.867Z" fill="#FFFAFA"/>
<path d="M440.536 204.667C438.936 207.067 438.269 210.8 438.403 216.667C438.669 227.467 440.136 230.667 445.336 230.667C450.536 230.667 452.269 227.2 452.403 215.867C452.536 208.8 452.003 206.267 450.003 204C446.669 200.4 443.203 200.667 440.536 204.667ZM448.136 206.8C449.736 210 450.269 224 448.803 226.4C447.469 228.667 443.069 228.4 442.136 225.867C440.669 222.133 441.336 207.2 442.936 205.6C445.203 203.333 446.403 203.6 448.136 206.8Z" fill="#FFFAFA"/>
<path d="M456.936 212.267C456.136 225.467 456.403 231.467 458.136 231.067C458.803 230.8 459.603 226 460.003 220.4C460.536 212.4 460.936 210.8 461.736 213.733C464.269 222.667 468.269 232 469.469 231.333C471.069 230.267 471.069 201.333 469.336 201.333C468.669 201.333 468.003 206 467.736 211.6L467.336 222L463.869 212.133C462.003 206.667 459.869 202 459.069 201.733C458.269 201.467 457.469 205.467 456.936 212.267Z" fill="#FFFAFA"/>
<path d="M481.336 203.067C481.336 204.133 482.536 208.4 484.003 212.667C485.469 216.933 486.669 222.667 486.669 225.6C486.669 228.4 487.336 230.667 488.003 230.667C488.803 230.667 489.336 228.4 489.336 225.6C489.336 222.667 490.536 216.933 492.003 212.667C494.936 204.133 495.336 200.8 493.336 202C492.536 202.4 491.336 205.467 490.536 208.8C489.736 212 488.669 214.667 488.136 214.667C487.603 214.667 486.403 211.6 485.469 208C483.869 201.867 481.336 198.8 481.336 203.067Z" fill="#FFFAFA"/>
<path d="M509.336 201.733C509.336 202.133 508.136 208.267 506.669 215.333C505.203 222.4 504.003 229.2 504.003 230.267C504.003 233.467 506.269 230.933 507.069 226.667C507.736 223.467 508.669 222.667 511.203 222.667C513.736 222.667 514.669 223.6 515.336 226.667C516.536 232.133 519.069 231.867 518.003 226.267C515.336 212.267 512.403 202.133 510.936 201.6C510.136 201.333 509.336 201.333 509.336 201.733ZM512.536 214.267C513.336 219.467 513.069 220 510.669 220C507.869 220 507.869 218.933 510.269 210.267C511.069 206.933 511.469 207.6 512.536 214.267Z" fill="#FFFAFA"/>
<path d="M522.269 202.267C521.736 202.667 521.336 209.333 521.336 216.933V230.667H525.869C528.403 230.667 531.336 229.733 532.536 228.667C537.336 223.867 536.936 207.733 532.003 203.733C529.069 201.333 523.869 200.533 522.269 202.267ZM531.869 209.467C534.936 218.4 532.536 228.4 527.469 227.733C525.869 227.467 524.803 226.933 525.069 226.267C525.203 225.733 525.336 220.8 525.336 215.333C525.336 206.4 525.603 205.333 527.869 205.333C529.469 205.333 530.936 206.8 531.869 209.467Z" fill="#FFFAFA"/>
<path d="M541.869 204.133C539.869 206.4 539.336 208.933 539.336 216.933C539.336 225.867 539.736 227.2 542.536 229.467C546.403 232.667 547.336 232.667 550.669 229.333C552.803 227.2 553.336 224.933 553.336 216.933C553.336 202.8 548.269 197.067 541.869 204.133ZM549.869 207.467C551.069 210.533 550.803 224.4 549.469 226.4C547.603 229.467 543.603 227.6 542.403 223.333C541.336 219.6 542.136 208.667 543.603 206.267C544.669 204.533 549.069 205.333 549.869 207.467Z" fill="#FFFAFA"/>
<path d="M558.003 202.933C556.669 206.267 557.869 230.667 559.336 230.667C560.803 230.667 560.936 229.867 561.203 223.333C561.336 220.133 562.003 219.2 564.136 219.067C568.536 218.667 570.669 216 570.669 210.8C570.669 204.4 569.336 202.667 563.603 201.733C560.003 201.2 558.536 201.467 558.003 202.933ZM567.336 210.667C567.336 214.8 566.936 215.333 563.736 215.733C560.136 216.133 560.003 215.867 560.003 210.667C560.003 205.467 560.136 205.2 563.736 205.6C566.936 206 567.336 206.533 567.336 210.667Z" fill="#FFFAFA"/>
<path d="M576.536 204.133C574.536 206.4 574.003 208.933 574.003 216.933C574.003 225.867 574.403 227.2 577.203 229.467C580.803 232.4 581.469 232.533 584.403 230.267C587.336 228.133 589.069 220.8 586.536 221.6C585.469 222 584.669 223.067 584.669 224C584.669 226.533 580.403 228.933 578.803 227.333C577.603 226 576.669 216.133 577.069 209.2C577.469 203.2 583.469 203.6 585.736 209.6C586.003 210.533 586.669 210.933 587.203 210.4C588.936 208.933 584.136 201.333 581.469 201.333C580.136 201.333 578.003 202.533 576.536 204.133Z" fill="#FFFAFA"/>
<path d="M591.736 216C591.469 227.333 591.736 230.667 593.069 230.667C594.403 230.667 594.669 227.333 594.536 216.667C594.403 208.933 593.869 202.267 593.203 202C592.669 201.6 592.003 207.867 591.736 216Z" fill="#FFFAFA"/>
<path d="M601.203 203.6C599.869 205.067 599.336 209.467 599.336 216.933C599.336 226.533 599.736 228.533 601.869 230.133C605.203 232.533 605.736 232.533 609.469 229.467C612.403 227.2 612.669 225.867 612.669 216C612.669 206.8 612.269 204.8 610.136 203.2C606.669 200.667 603.469 200.8 601.203 203.6ZM610.003 213.733C611.069 222 609.203 228 605.469 228C602.136 228 601.336 225.467 601.336 216C601.336 202 608.403 200.133 610.003 213.733Z" fill="#FFFAFA"/>
<path d="M617.336 215.867C617.336 224.8 617.869 230.667 618.669 230.667C619.469 230.667 620.003 226.267 620.136 220.267V210L623.869 220C629.336 234.533 630.669 233.733 630.669 215.867C630.669 199.333 628.403 196.8 627.736 212.533L627.336 221.733L624.003 212C618.936 197.2 617.336 198.267 617.336 215.867Z" fill="#FFFAFA"/>
<path d="M642.669 216C642.669 224.933 643.203 230.667 644.003 230.667C644.803 230.667 645.336 228 645.336 224.667C645.336 216.4 648.403 216.667 651.336 225.333C652.536 228.933 654.136 232 654.803 232C656.403 232 656.269 231.2 654.136 224C652.536 218.8 652.536 217.467 654.136 215.333C658.803 209.067 654.536 201.333 646.403 201.333H642.669V216ZM652.669 207.867C653.869 211.6 652.003 214.667 648.536 214.667C645.736 214.667 645.336 214 645.336 210C645.336 206 645.736 205.333 648.536 205.333C650.536 205.333 652.136 206.267 652.669 207.867Z" fill="#FFFAFA"/>
<path d="M660.003 216.267V231.333L666.003 230.933C673.069 230.267 674.136 228 667.336 228C662.803 228 662.669 227.867 662.669 222.667C662.669 217.6 662.936 217.333 666.803 217.333C669.069 217.333 670.536 216.8 670.003 216C669.603 215.2 667.736 214.667 665.869 214.667C663.069 214.667 662.669 214 662.669 210.133C662.669 205.867 663.069 205.467 667.069 205.067C673.203 204.533 672.269 202.133 665.736 201.6L660.003 201.2V216.267Z" fill="#FFFAFA"/>
<path d="M677.069 202.8C675.469 203.6 674.669 205.733 674.669 208.667C674.669 212.267 675.603 213.867 679.469 216.8C683.069 219.6 684.003 221.2 683.736 223.867C683.203 228.4 677.336 229.733 677.336 225.333C677.336 223.733 676.669 222.667 675.869 222.933C675.069 223.2 674.536 223.867 674.536 224.4C674.669 224.933 674.669 226.267 674.669 227.333C674.669 230.533 679.336 232.267 683.203 230.4C686.003 229.2 686.669 228 686.669 223.867C686.669 219.6 685.869 218.267 682.003 215.2C678.936 212.933 677.336 210.533 677.336 208.4C677.336 203.867 681.203 202.933 684.136 206.8C686.136 209.333 686.669 209.467 686.669 207.733C686.669 205.2 683.203 201.333 680.936 201.333C680.003 201.333 678.269 202 677.069 202.8Z" fill="#FFFAFA"/>
<path d="M690.669 215.867C690.669 230.533 692.803 237.733 693.603 225.733C694.003 220 694.403 219.333 697.336 218.933C702.403 218.133 704.003 216.133 704.003 210.533C704.003 204.667 700.403 201.333 694.403 201.333H690.669V215.867ZM700.803 208.667C701.736 212.533 699.469 216 695.869 216C693.869 216 693.336 214.933 693.336 210.667C693.336 205.867 693.736 205.333 696.669 205.333C699.069 205.333 700.136 206.267 700.803 208.667Z" fill="#FFFAFA"/>
<path d="M710.136 203.333C705.336 208.133 705.736 225.467 710.803 229.6C714.269 232.533 714.803 232.533 718.003 230.133C721.603 227.467 722.669 209.6 719.469 204.667C716.936 200.933 713.203 200.4 710.136 203.333ZM717.869 208.267C719.203 213.6 718.669 223.467 716.803 226C711.869 232.667 706.803 218.667 710.669 208.8C712.269 204.4 716.669 204.133 717.869 208.267Z" fill="#FFFAFA"/>
<path d="M725.336 216C725.336 232.8 727.736 236.267 728.269 220.267L728.669 210L732.669 220.267C734.803 226 737.203 230.667 738.003 230.667C739.869 230.667 740.669 203.2 738.803 202.133C737.736 201.467 737.336 204.4 737.336 211.333C737.336 216.933 736.936 221.2 736.269 220.933C735.736 220.533 733.869 216 732.003 210.8C727.203 196.8 725.336 198.267 725.336 216Z" fill="#FFFAFA"/>
<path d="M746.136 203.467C742.536 207.067 743.469 212.4 748.803 217.2C752.003 220.133 753.336 222.533 753.069 224.4C752.536 228.4 747.203 229.067 746.003 225.333C745.603 223.867 744.669 222.933 744.003 223.333C741.336 224.933 746.403 232 750.136 232C753.203 232 756.003 227.867 756.003 223.333C756.003 219.733 755.069 218.133 751.336 215.2C748.403 212.933 746.669 210.533 746.669 208.533C746.669 204 749.336 203.2 752.136 206.8C755.203 210.933 757.069 209.067 754.136 204.667C751.603 200.8 749.069 200.4 746.136 203.467Z" fill="#FFFAFA"/>
<path d="M762.669 208.933C761.869 213.2 760.403 219.867 759.469 223.6C758.269 228.8 758.136 230.667 759.203 230.667C760.136 230.667 761.469 228.933 762.269 226.8C764.536 220.667 768.403 222 771.469 230C772.403 232.4 772.536 232.4 772.936 229.333C773.469 224.8 767.603 202.267 765.736 201.733C764.803 201.333 763.603 204.267 762.669 208.933ZM767.869 214.933C768.936 219.467 768.803 220 766.536 220C764.803 220 764.003 219.067 764.003 216.933C764.003 213.333 765.736 206.933 766.136 208.667C766.403 209.467 767.069 212.267 767.869 214.933Z" fill="#FFFAFA"/>
<path d="M777.203 208.933C777.203 213.2 777.069 219.867 776.936 223.733L776.669 230.667H781.336C788.669 230.667 789.203 229.733 789.069 216.933C788.936 203.867 787.736 201.333 781.203 201.333C777.336 201.333 777.336 201.467 777.203 208.933ZM786.403 209.2C786.936 212.267 784.936 214.667 781.736 214.667C780.669 214.667 780.003 212.8 780.003 209.867C780.003 205.733 780.403 205.2 783.069 205.6C784.936 205.867 786.136 207.067 786.403 209.2ZM786.936 220.667C788.669 224.533 786.536 228 782.536 228C780.536 228 780.003 226.933 780.003 222.667C780.003 218.267 780.403 217.333 782.669 217.333C784.269 217.333 786.003 218.667 786.936 220.667Z" fill="#FFFAFA"/>
<path d="M794.003 202.667C793.603 203.333 793.336 210 793.603 217.333L794.003 230.667H799.736C802.803 230.667 805.336 230 805.336 229.333C805.336 228.533 803.603 228 801.336 228H797.336V215.467C797.336 203.867 796.136 199.2 794.003 202.667Z" fill="#FFFAFA"/>
<path d="M808.003 216V230.667H814.003C817.336 230.667 820.003 230 820.003 229.333C820.003 228.533 817.869 228 815.336 228C810.803 228 810.669 227.867 810.669 222.667C810.669 217.6 810.936 217.333 814.669 217.333C819.603 217.333 820.003 214.933 815.069 214.4C812.003 214 811.336 213.333 811.203 209.6C810.936 205.6 811.203 205.333 815.469 205.333C818.669 205.333 820.003 204.667 820.003 203.333C820.003 201.867 818.403 201.333 814.003 201.333H808.003V216Z" fill="#FFFAFA"/>
</svg>
