<?xml version="1.0" standalone="no"?>
<!DOCTYPE svg PUBLIC "-//W3C//DTD SVG 20010904//EN"
 "http://www.w3.org/TR/2001/REC-SVG-20010904/DTD/svg10.dtd">
<svg version="1.0" xmlns="http://www.w3.org/2000/svg"
 width="626.000000pt" height="203.000000pt" viewBox="0 0 626.000000 203.000000"
 preserveAspectRatio="xMidYMid meet">

<g transform="translate(0.000000,203.000000) scale(0.100000,-0.100000)"
fill="#000000" stroke="none">
<path d="M1119 1934 c-61 -90 -175 -354 -213 -495 -16 -57 -40 -111 -73 -165
-27 -43 -82 -137 -123 -209 -187 -333 -330 -551 -436 -664 l-79 -84 -7 34
c-25 123 -48 733 -34 891 l8 76 36 7 c84 16 194 58 252 97 72 47 139 132 166
209 11 30 27 55 39 60 11 5 88 20 170 35 83 14 150 26 151 27 4 7 54 120 54
123 0 7 -382 -49 -422 -62 -10 -3 -22 -23 -29 -47 -28 -108 -116 -209 -226
-262 -32 -15 -106 -39 -164 -53 l-106 -26 -7 -95 c-10 -150 -7 -548 5 -709 13
-174 34 -371 41 -378 4 -4 553 -6 976 -4 52 0 52 0 52 33 0 57 38 214 64 265
15 30 39 59 60 72 32 19 47 21 178 19 164 -3 181 3 244 74 54 61 114 186 114
236 0 51 -22 68 -183 145 -128 61 -150 83 -162 160 -13 76 -88 178 -172 234
-43 28 -53 40 -49 56 19 81 36 246 34 321 l-3 90 -39 -57 c-21 -32 -43 -58
-47 -58 -5 0 -9 20 -9 44 0 55 -10 106 -21 106 -4 0 -22 -21 -40 -46z m72
-355 c-7 -18 -10 3 -10 83 -1 139 13 174 17 42 1 -55 -2 -111 -7 -125z m203
-371 c22 -31 21 -62 -1 -53 -10 4 -30 12 -45 17 -34 12 -35 22 -6 42 29 21 34
20 52 -6z m375 -348 c0 -9 -6 -4 -14 10 -8 14 -14 32 -14 40 0 9 6 4 14 -10 8
-14 14 -32 14 -40z"/>
<path d="M1330 1807 l0 -63 138 -23 c75 -12 144 -24 152 -27 8 -2 23 -25 32
-51 57 -159 201 -270 411 -317 l52 -11 9 -155 c9 -174 -6 -581 -29 -775 -8
-66 -15 -126 -15 -132 0 -8 14 -13 38 -13 l39 0 11 108 c7 59 17 163 23 232
11 136 13 700 3 792 l-6 57 -57 11 c-138 27 -209 55 -292 116 -56 41 -125 139
-140 200 -8 30 -19 49 -33 55 -17 7 -307 59 -330 59 -3 0 -6 -28 -6 -63z"/>
<path d="M805 1640 c-146 -28 -140 -25 -153 -68 -42 -140 -210 -278 -379 -313
l-61 -13 -7 -180 c-8 -217 15 -636 35 -636 16 0 19 32 10 103 -14 115 -23 442
-15 568 l7 117 66 17 c105 28 194 79 260 149 50 54 112 157 112 186 0 5 17 12
38 16 177 31 207 40 210 57 4 20 5 20 -123 -3z"/>
<path d="M1310 1645 c0 -8 13 -16 33 -20 170 -30 238 -43 240 -46 2 -2 18 -35
37 -73 62 -129 188 -228 346 -272 l62 -17 6 -57 c18 -153 5 -506 -30 -858 -5
-43 -3 -62 4 -62 14 0 18 18 32 135 28 240 40 657 24 812 l-7 60 -56 13 c-31
6 -93 29 -138 51 -108 51 -170 114 -223 223 l-40 82 -133 22 c-157 26 -157 26
-157 7z"/>
<path d="M5802 1282 c-22 -3 -29 -15 -46 -69 -13 -40 21 -27 54 21 31 47 30
55 -8 48z"/>
<path d="M2494 1154 c-37 -18 -54 -51 -61 -119 -7 -66 22 -110 95 -145 36 -17
55 -32 59 -49 15 -59 -52 -80 -76 -23 -13 28 -19 32 -53 32 -21 0 -38 -2 -38
-5 0 -2 5 -27 11 -54 14 -67 53 -101 115 -101 25 0 54 5 66 11 29 15 58 86 58
142 0 77 -24 115 -92 146 -58 26 -74 45 -62 75 10 25 47 15 62 -16 10 -21 20
-28 43 -28 37 0 45 19 30 71 -21 68 -90 96 -157 63z"/>
<path d="M4054 1160 c-29 -12 -70 -63 -85 -107 -17 -49 -17 -196 0 -252 7 -25
28 -60 47 -79 33 -33 37 -34 94 -30 49 3 65 10 90 33 30 28 30 30 30 132 l0
103 -66 0 -65 0 3 -47 c3 -44 5 -48 31 -51 21 -3 27 -9 27 -27 0 -27 -26 -45
-64 -45 -39 0 -56 43 -56 139 0 92 13 129 48 138 20 5 30 0 48 -22 19 -24 26
-27 58 -21 42 8 43 15 15 74 -30 61 -94 87 -155 62z"/>
<path d="M2720 926 l0 -235 113 3 112 3 0 49 0 49 -72 3 -73 3 0 44 0 45 65 0
65 0 0 50 0 50 -65 0 -65 0 0 35 0 35 70 0 70 0 0 50 0 50 -110 0 -110 0 0
-234z"/>
<path d="M2996 945 c-4 -132 -3 -221 3 -232 8 -16 25 -19 110 -21 l101 -3 0
55 0 56 -65 0 -65 0 0 180 0 180 -38 0 -39 0 -7 -215z"/>
<path d="M3260 1155 c0 -3 0 -107 -1 -232 l0 -228 106 -3 105 -3 0 56 0 55
-52 1 c-29 1 -59 1 -65 0 -10 -1 -13 40 -13 179 l0 180 -40 0 c-22 0 -40 -2
-40 -5z"/>
<path d="M3578 1145 c-45 -25 -72 -97 -76 -207 -5 -115 12 -172 65 -218 42
-38 95 -40 143 -7 49 33 69 93 69 206 1 109 -11 156 -51 205 -26 32 -35 36
-76 36 -26 -1 -59 -7 -74 -15z m98 -106 c16 -18 19 -37 19 -114 0 -77 -3 -96
-19 -114 -24 -27 -48 -27 -72 0 -16 18 -19 37 -19 114 0 77 3 96 19 114 24 27
48 27 72 0z"/>
<path d="M4290 989 c0 -239 18 -286 115 -297 59 -6 90 10 118 63 20 36 22 58
25 223 l4 182 -41 0 -41 0 0 -155 c0 -95 -4 -164 -12 -179 -14 -33 -45 -43
-67 -22 -13 14 -17 45 -19 186 l-3 170 -40 0 -39 0 0 -171z"/>
<path d="M4666 1118 c-6 -38 -80 -366 -92 -410 -5 -15 2 -18 40 -18 l45 0 7
46 6 45 47 -3 c47 -3 48 -4 67 -75 5 -19 84 -17 84 1 0 8 -17 88 -39 178 -21
90 -44 189 -50 221 l-12 57 -48 0 -48 0 -7 -42z m79 -197 l7 -51 -32 0 c-28 0
-32 3 -27 23 3 12 9 40 12 62 14 86 25 76 40 -34z"/>
<path d="M4905 1048 c-3 -62 -5 -167 -3 -233 l3 -120 40 0 40 0 5 99 c5 96 5
98 23 78 10 -11 28 -53 40 -93 l23 -74 42 -6 c24 -3 45 -2 47 1 7 11 -34 149
-52 176 -15 23 -15 26 8 50 21 23 24 35 24 105 0 68 -3 81 -23 101 -20 20 -35
23 -116 26 l-94 4 -7 -114z m155 3 c22 -41 -1 -81 -46 -81 -22 0 -24 4 -24 50
0 49 1 50 30 50 19 0 33 -7 40 -19z"/>
<path d="M5212 929 l3 -234 74 1 c88 2 111 13 141 67 31 55 40 208 17 288 -25
85 -51 103 -153 108 l-84 3 2 -233z m144 110 c15 -16 20 -39 22 -103 3 -99 -9
-130 -56 -134 l-32 -3 0 130 c0 131 0 131 23 131 13 0 32 -9 43 -21z"/>
<path d="M5512 928 l3 -233 32 -3 c52 -5 56 13 51 252 l-4 211 -42 3 -42 3 2
-233z"/>
<path d="M5737 1153 c-7 -12 -96 -393 -99 -427 -2 -22 2 -29 16 -32 34 -5 66
14 66 40 0 26 13 38 45 44 42 6 64 -7 71 -43 4 -22 12 -35 23 -36 9 -1 29 -3
44 -5 22 -2 27 1 23 14 -3 9 -14 60 -25 112 -12 52 -33 149 -49 215 l-28 120
-41 3 c-23 2 -43 -1 -46 -5z m56 -188 c4 -25 9 -56 13 -70 6 -23 3 -25 -25
-25 -35 0 -35 0 -20 87 13 71 23 74 32 8z"/>
<path d="M5960 924 l0 -235 38 3 37 3 5 125 5 125 44 -115 c25 -63 48 -119 53
-125 5 -5 25 -11 43 -11 l35 -1 0 233 0 234 -40 0 -41 0 2 -121 c1 -66 0 -122
-2 -124 -2 -2 -26 53 -53 121 l-49 124 -38 0 -39 0 0 -236z"/>
<path d="M3410 510 c-7 -13 -7 -20 -1 -20 6 0 15 9 21 20 7 13 7 20 1 20 -6 0
-15 -9 -21 -20z"/>
<path d="M4613 515 c-8 -22 6 -33 17 -15 13 20 12 30 0 30 -6 0 -13 -7 -17
-15z"/>
<path d="M2440 354 c0 -74 4 -113 10 -109 6 3 10 27 10 52 0 37 3 44 16 39 9
-3 25 4 41 20 45 45 15 114 -49 114 l-28 0 0 -116z m68 69 c14 -26 -3 -63 -28
-63 -17 0 -20 6 -20 40 0 33 3 40 20 40 10 0 23 -8 28 -17z"/>
<path d="M2567 463 c-11 -11 -8 -213 3 -213 6 0 10 20 10 45 0 37 3 45 19 45
13 0 22 -12 31 -45 7 -25 17 -45 22 -45 6 0 7 10 4 23 -15 51 -18 85 -7 91 16
11 13 72 -5 90 -15 16 -65 22 -77 9z m68 -58 c0 -25 -4 -30 -27 -33 -26 -3
-28 -1 -28 33 0 34 2 36 28 33 23 -3 27 -8 27 -33z"/>
<path d="M2703 443 c-31 -47 -20 -173 17 -193 48 -26 88 49 75 139 -12 79 -58
106 -92 54z m69 -85 c2 -72 -4 -88 -32 -88 -26 0 -42 61 -31 119 18 91 62 70
63 -31z"/>
<path d="M2815 459 c-4 -6 2 -13 14 -16 19 -5 21 -12 21 -99 0 -56 4 -94 10
-94 6 0 10 38 10 95 0 88 1 95 20 95 11 0 20 7 20 15 0 11 -12 15 -44 15 -25
0 -48 -5 -51 -11z"/>
<path d="M2938 378 c-4 -135 -5 -134 48 -130 52 5 60 22 9 22 -34 0 -35 1 -35
40 0 36 3 40 25 40 14 0 25 5 25 10 0 6 -11 10 -25 10 -18 0 -25 5 -25 19 0
11 -3 26 -6 35 -5 13 1 16 30 16 25 0 36 4 36 15 0 11 -11 15 -39 15 l-40 0
-3 -92z"/>
<path d="M3065 450 c-14 -16 -18 -37 -19 -96 0 -68 2 -78 23 -95 27 -22 32
-23 54 -6 19 14 34 67 19 67 -5 0 -13 -12 -16 -26 -5 -19 -12 -25 -29 -22 -20
3 -22 9 -25 76 -4 96 21 133 51 76 17 -33 30 -17 14 17 -16 31 -48 35 -72 9z"/>
<path d="M3190 450 c-16 -16 -20 -33 -20 -85 0 -101 36 -150 81 -109 19 17 28
70 9 59 -5 -3 -10 -15 -10 -26 0 -25 -36 -25 -50 0 -5 11 -10 41 -10 66 0 80
38 115 62 58 l12 -28 4 28 c7 54 -39 76 -78 37z"/>
<path d="M3300 361 c0 -61 4 -111 9 -111 8 0 22 146 17 189 -1 14 -8 27 -14
29 -9 3 -12 -27 -12 -107z"/>
<path d="M3374 445 c-12 -18 -17 -46 -16 -90 2 -81 13 -105 52 -105 39 0 52
26 53 111 1 53 -3 72 -18 89 -25 27 -51 25 -71 -5z m57 -16 c12 -24 16 -129 5
-147 -10 -17 -43 -15 -50 4 -11 28 -6 140 6 152 17 17 26 15 39 -9z"/>
<path d="M3497 388 c-6 -99 -4 -144 9 -141 5 2 11 38 14 80 4 60 7 72 13 50
19 -67 49 -137 58 -132 12 8 12 225 -1 225 -5 0 -10 -35 -12 -77 l-3 -78 -26
74 c-14 41 -30 76 -36 78 -6 2 -12 -28 -16 -79z"/>
<path d="M3680 457 c0 -8 9 -40 20 -72 11 -32 20 -75 20 -97 0 -21 5 -38 10
-38 6 0 10 17 10 38 0 22 9 65 20 97 22 64 25 89 10 80 -6 -3 -15 -26 -21 -51
-6 -24 -14 -44 -18 -44 -4 0 -13 23 -20 50 -12 46 -31 69 -31 37z"/>
<path d="M3890 467 c0 -3 -9 -49 -20 -102 -11 -53 -20 -104 -20 -112 0 -24 17
-5 23 27 5 24 12 30 31 30 19 0 26 -7 31 -30 9 -41 28 -39 20 3 -20 105 -42
181 -53 185 -6 2 -12 2 -12 -1z m24 -94 c6 -39 4 -43 -14 -43 -21 0 -21 8 -3
73 6 25 9 20 17 -30z"/>
<path d="M3987 463 c-4 -3 -7 -53 -7 -110 l0 -103 34 0 c19 0 41 7 50 15 36
36 33 157 -4 187 -22 18 -61 24 -73 11z m72 -54 c23 -67 5 -142 -33 -137 -12
2 -20 6 -18 11 1 4 2 41 2 82 0 67 2 75 19 75 12 0 23 -11 30 -31z"/>
<path d="M4134 449 c-15 -17 -19 -36 -19 -96 0 -67 3 -77 24 -94 29 -24 36
-24 61 1 16 16 20 33 20 93 0 106 -38 149 -86 96z m60 -25 c9 -23 7 -127 -3
-142 -14 -23 -44 -9 -53 23 -8 28 -2 110 9 128 8 13 41 7 47 -9z"/>
<path d="M4255 458 c-10 -25 -1 -208 10 -208 11 0 12 6 14 55 1 24 6 31 22 32
33 3 49 23 49 62 0 48 -10 61 -53 68 -27 4 -38 2 -42 -9z m70 -58 c0 -31 -3
-35 -27 -38 -27 -3 -28 -1 -28 38 0 39 1 41 28 38 24 -3 27 -7 27 -38z"/>
<path d="M4394 449 c-15 -17 -19 -36 -19 -96 0 -67 3 -77 24 -94 27 -22 32
-23 54 -6 22 16 35 71 16 65 -8 -3 -14 -11 -14 -18 0 -19 -32 -37 -44 -25 -9
10 -16 84 -13 136 3 45 48 42 65 -3 2 -7 7 -10 11 -6 13 11 -23 68 -43 68 -10
0 -26 -9 -37 -21z"/>
<path d="M4508 360 c-2 -85 0 -110 10 -110 10 0 12 25 11 105 -1 58 -5 108
-10 110 -4 3 -9 -44 -11 -105z"/>
<path d="M4579 453 c-10 -11 -14 -44 -14 -100 0 -72 3 -87 19 -99 25 -18 29
-18 57 5 22 17 24 27 24 101 0 69 -3 84 -19 96 -26 19 -50 18 -67 -3z m66 -76
c8 -62 -6 -107 -34 -107 -25 0 -31 19 -31 90 0 105 53 119 65 17z"/>
<path d="M4700 361 c0 -67 4 -111 10 -111 6 0 10 33 11 78 l0 77 28 -75 c41
-109 51 -103 51 31 0 124 -17 143 -22 25 l-3 -69 -25 73 c-38 111 -50 103 -50
-29z"/>
<path d="M4890 360 c0 -67 4 -110 10 -110 6 0 10 20 10 45 0 62 23 60 45 -5 9
-27 21 -50 26 -50 12 0 11 6 -5 60 -12 39 -12 49 0 65 35 47 3 105 -58 105
l-28 0 0 -110z m75 61 c9 -28 -5 -51 -31 -51 -21 0 -24 5 -24 35 0 30 3 35 24
35 15 0 27 -7 31 -19z"/>
<path d="M5020 358 l0 -113 45 3 c53 5 61 22 10 22 -34 0 -35 1 -35 40 0 38 2
40 31 40 17 0 28 4 24 10 -3 6 -17 10 -31 10 -21 0 -24 5 -24 34 0 32 3 35 33
38 46 4 39 22 -10 26 l-43 3 0 -113z"/>
<path d="M5148 459 c-12 -6 -18 -22 -18 -44 0 -27 7 -39 36 -61 27 -21 34 -33
32 -53 -4 -34 -48 -44 -48 -11 0 12 -5 20 -11 18 -6 -2 -10 -7 -10 -11 1 -4 1
-14 1 -22 0 -24 35 -37 64 -23 21 9 26 18 26 49 0 32 -6 42 -35 65 -23 17 -35
35 -35 51 0 34 29 41 51 12 15 -19 19 -20 19 -7 0 19 -26 48 -43 48 -7 0 -20
-5 -29 -11z"/>
<path d="M5250 361 c0 -110 16 -164 22 -74 3 43 6 48 28 51 38 6 50 21 50 63
0 44 -27 69 -72 69 l-28 0 0 -109z m76 54 c7 -29 -10 -55 -37 -55 -15 0 -19 8
-19 40 0 36 3 40 25 40 18 0 26 -7 31 -25z"/>
<path d="M5396 455 c-36 -36 -33 -166 5 -197 26 -22 30 -22 54 -4 27 20 35
154 11 191 -19 28 -47 32 -70 10z m58 -37 c10 -40 6 -114 -8 -133 -37 -50 -75
55 -46 129 12 33 45 35 54 4z"/>
<path d="M5510 360 c0 -126 18 -152 22 -32 l3 77 30 -77 c16 -43 34 -78 40
-78 14 0 20 206 6 214 -8 5 -11 -17 -11 -69 0 -42 -3 -74 -8 -72 -4 3 -18 37
-32 76 -36 105 -50 94 -50 -39z"/>
<path d="M5666 454 c-27 -27 -20 -67 20 -103 24 -22 34 -40 32 -54 -4 -30 -44
-35 -53 -7 -3 11 -10 18 -15 15 -20 -12 18 -65 46 -65 23 0 44 31 44 65 0 27
-7 39 -35 61 -22 17 -35 35 -35 50 0 34 20 40 41 13 23 -31 37 -17 15 16 -19
29 -38 32 -60 9z"/>
<path d="M5790 413 c-6 -32 -17 -82 -24 -110 -9 -39 -10 -53 -2 -53 7 0 17 13
23 29 17 46 46 36 69 -24 7 -18 8 -18 11 5 4 34 -40 203 -54 207 -7 3 -16 -19
-23 -54z m39 -45 c8 -34 7 -38 -10 -38 -13 0 -19 7 -19 23 0 27 13 75 16 62 2
-6 7 -27 13 -47z"/>
<path d="M5899 413 c0 -32 -1 -82 -2 -111 l-2 -52 35 0 c55 0 59 7 58 103 -1
98 -10 117 -59 117 -29 0 -29 -1 -30 -57z m69 -2 c4 -23 -11 -41 -35 -41 -8 0
-13 14 -13 36 0 31 3 35 23 32 14 -2 23 -11 25 -27z m4 -86 c13 -29 -3 -55
-33 -55 -15 0 -19 8 -19 40 0 33 3 40 20 40 12 0 25 -10 32 -25z"/>
<path d="M6025 460 c-3 -5 -5 -55 -3 -110 l3 -100 43 0 c23 0 42 5 42 10 0 6
-13 10 -30 10 l-30 0 0 94 c0 87 -9 122 -25 96z"/>
<path d="M6130 360 l0 -110 45 0 c25 0 45 5 45 10 0 6 -16 10 -35 10 -34 0
-35 1 -35 40 0 38 2 40 30 40 37 0 40 18 3 22 -23 3 -28 8 -29 36 -2 30 0 32
32 32 24 0 34 5 34 15 0 11 -12 15 -45 15 l-45 0 0 -110z"/>
</g>
</svg>
